<svg height="512pt" viewBox="0 -44 512 512" width="512pt" xmlns="http://www.w3.org/2000/svg"><path d="m90.917969 168.542969 28.277343-15.125 24.78125 46.34375-28.273437 15.121093zm0 0" fill="#dad8db"/><path d="m256 207.910156c-103.320312 0-192.242188 85.496094-232.46875 208.421875h464.9375c-40.226562-122.925781-129.148438-208.421875-232.46875-208.421875zm0 0" fill="#ffe09f"/><path d="m170.785156 323.488281c23.902344-48.496093 55.25-88.226562 91.503906-115.414062-.015624-.046875-.003906-.011719-.019531-.058594-105.980469-3.539063-197.703125 82.910156-238.738281 208.316406h464.9375c-2.683594-8.191406-5.59375-16.203125-8.699219-24.046875h-265.539062c-35.347657-.003906-59.070313-37.089844-43.445313-68.796875zm0 0" fill="#f6d190"/><path d="m121.289062 157.363281-75.601562-141.378906c-4.171875-7.808594-13.886719-10.753906-21.695312-6.578125-7.808594 4.171875-10.753907 13.890625-6.578126 21.695312l75.601563 141.378907zm0 0" fill="#d19a6e"/><path d="m121.285156 157.375-28.273437 15.121094-10.863281-20.316406 28.273437-15.121094zm0 0" fill="#c38c66"/><path d="m504.5 408.832031h-10.636719c-20.546875-60.269531-52.597656-111.476562-92.90625-148.34375-42.980469-39.300781-93.105469-60.078125-144.957031-60.078125-26.21875 0-51.996094 5.320313-76.632812 15.65625l-7.085938-13.25c-2.964844-5.542968-7.910156-9.597656-13.921875-11.421875-3.539063-1.074219-7.195313-1.292969-10.734375-.691406l-95.320312-178.257813c-2.964844-5.542968-7.910157-9.597656-13.925782-11.421874-6.015625-1.824219-12.382812-1.195313-17.925781 1.769531-11.441406 6.117187-15.773437 20.40625-9.652344 31.847656l95.324219 178.265625c-6.726562 7.15625-8.503906 18.09375-3.621094 27.222656l10.125 18.9375c-.527344.476563-1.058594.941406-1.585937 1.421875-40.308594 36.867188-72.359375 88.074219-92.90625 148.34375h-10.636719c-4.140625 0-7.5 3.355469-7.5 7.5 0 4.140625 3.359375 7.5 7.5 7.5h497c4.140625 0 7.5-3.359375 7.5-7.5 0-4.144531-3.359375-7.5-7.5-7.5zm-350.492188-203.082031c2.179688.660156 3.972657 2.128906 5.046876 4.140625l6.667968 12.472656c-5.035156 2.539063-10.011718 5.296875-14.933594 8.265625l-10.808593-20.214844 7.527343-4.023437c2.007813-1.078125 4.316407-1.304687 6.5-.640625zm-14.226562 72.28125-8.253906-15.433594c4.515625-3.699218 9.101562-7.191406 13.753906-10.464844l8.15625 15.253907c-4.625 3.324219-9.179688 6.871093-13.65625 10.644531zm26.210938-18.976562-8.113282-15.175782c4.914063-2.988281 9.886719-5.753906 14.921875-8.28125l8.113281 15.167969c-5.042968 2.515625-10.019531 5.28125-14.921874 8.289063zm-39.699219-58.332032c-.007813.003906-.019531.011719-.027344.015625l-7.492187 4.007813-15.609376-29.1875 15.050782-8.046875 15.605468 29.1875-7.496093 4.003906c-.007813.007813-.019531.011719-.03125.019531zm-98.765625-184.703125c4.148437-2.21875 9.328125-.648437 11.546875 3.5l72.066406 134.765625-15.046875 8.046875-72.066406-134.765625c-2.21875-4.148437-.648438-9.328125 3.5-11.546875zm88.203125 217.039063c-2.21875-4.148438-.648438-9.332032 3.5-11.546875l7.523437-4.023438 11.402344 21.324219c-4.675781 3.242188-9.289062 6.675781-13.832031 10.316406zm-57.484375 120.835937 10.027344 5.015625c1.078124.539063 2.222656.792969 3.347656.792969 2.753906 0 5.402344-1.519531 6.714844-4.148437 1.855468-3.703126.351562-8.210938-3.351563-10.0625l-9.351563-4.675782c15.527344-26.15625 33.789063-49.105468 54.296876-68.101562l8.375 15.664062c-1.992188 1.90625-3.96875 3.84375-5.925782 5.847656-2.894531 2.960938-2.84375 7.710938.121094 10.605469 1.460938 1.425781 3.351562 2.136719 5.242188 2.136719 1.949218 0 3.894531-.753906 5.363281-2.257812 21.257812-21.753907 44.628906-37.609376 69.464843-47.128907 3.867188-1.480469 5.800782-5.820312 4.320313-9.6875-1.484375-3.867187-5.820313-5.800781-9.691406-4.320312-.859375.332031-1.710938.6875-2.570313 1.03125l-8.148437-15.238281c22.421875-9.214844 45.796875-13.957032 69.519531-13.957032 24.375 0 48.382812 5.007813 71.371094 14.730469l-4.53125 4.53125c-2.929688 2.929687-2.929688 7.679687 0 10.605469 1.464844 1.464844 3.386718 2.199218 5.304687 2.199218s3.839844-.734374 5.300781-2.199218l8.019532-8.015625c.105468-.109375.207031-.226563.304687-.339844 17.121094 8.894531 33.574219 20.472656 49.0625 34.636719 37.378907 34.179687 67.375 81.488281 87.148438 137.269531h-354.136719l2.589844-5.175781c1.851562-3.707032.351562-8.210938-3.355469-10.0625-3.703125-1.851563-8.207031-.351563-10.0625 3.355468l-5.941406 11.882813h-73.054688c6.878907-19.402344 14.992188-37.777344 24.226563-54.933594zm0 0"/><path d="m207.902344 367.71875c1.917968 0 3.839844-.734375 5.304687-2.199219l16.03125-16.03125c2.929688-2.929687 2.929688-7.675781 0-10.605469-2.929687-2.929687-7.679687-2.929687-10.605469 0l-16.03125 16.03125c-2.929687 2.929688-2.929687 7.679688 0 10.605469 1.460938 1.464844 3.382813 2.199219 5.300782 2.199219zm0 0"/><path d="m282.761719 317.425781c1.464843 1.460938 3.382812 2.195313 5.300781 2.195313 1.921875 0 3.839844-.730469 5.304688-2.195313 2.929687-2.929687 2.929687-7.679687 0-10.609375l-16.03125-16.03125c-2.929688-2.929687-7.679688-2.929687-10.605469 0-2.929688 2.929688-2.929688 7.679688 0 10.605469zm0 0"/><path d="m336.160156 383.75c1.917969 0 3.839844-.730469 5.304688-2.195312l16.03125-16.035157c2.929687-2.925781 2.929687-7.675781 0-10.605469-2.929688-2.929687-7.679688-2.929687-10.605469 0l-16.03125 16.03125c-2.929687 2.929688-2.929687 7.679688 0 10.609376 1.460937 1.464843 3.382813 2.195312 5.300781 2.195312zm0 0"/><path d="m354.90625 317.425781c1.464844 1.460938 3.382812 2.195313 5.304688 2.195313 1.917968 0 3.835937-.730469 5.300781-2.195313 2.929687-2.929687 2.929687-7.679687 0-10.609375l-8.015625-8.015625c-2.929688-2.925781-7.679688-2.925781-10.605469 0-2.929687 2.929688-2.929687 7.679688 0 10.605469zm0 0"/><path d="m231.953125 263.507812c4.140625 0 7.5-3.359374 7.5-7.5v-8.015624c0-4.140626-3.359375-7.5-7.5-7.5-4.144531 0-7.5 3.359374-7.5 7.5v8.015624c0 4.140626 3.355469 7.5 7.5 7.5zm0 0"/><path d="m288.0625 360.734375c-4.140625 0-7.5 3.359375-7.5 7.5v8.015625c0 4.140625 3.359375 7.5 7.5 7.5 4.144531 0 7.5-3.359375 7.5-7.5v-8.015625c0-4.140625-3.355469-7.5-7.5-7.5zm0 0"/><path d="m408.308594 367.71875h8.015625c4.140625 0 7.5-3.359375 7.5-7.5 0-4.144531-3.359375-7.5-7.5-7.5h-8.015625c-4.144532 0-7.5 3.355469-7.5 7.5 0 4.140625 3.355468 7.5 7.5 7.5zm0 0"/><path d="m143.773438 335.652344c1.917968 0 3.839843-.730469 5.304687-2.195313l8.015625-8.015625c2.929688-2.929687 2.929688-7.679687 0-10.605468-2.929688-2.929688-7.679688-2.929688-10.605469 0l-8.015625 8.015624c-2.929687 2.925782-2.929687 7.675782 0 10.605469 1.464844 1.464844 3.382813 2.195313 5.300782 2.195313zm0 0"/><path d="m210.617188 309.40625c1.460937 1.464844 3.382812 2.199219 5.300781 2.199219 1.921875 0 3.839843-.730469 5.304687-2.199219 2.929688-2.925781 2.929688-7.675781 0-10.605469l-8.015625-8.015625c-2.929687-2.929687-7.679687-2.929687-10.605469 0-2.929687 2.929688-2.929687 7.679688 0 10.605469zm0 0"/></svg>